<?xml version="1.0" encoding="UTF-8" standalone="no"?>
<svg
   xmlns:dc="http://purl.org/dc/elements/1.1/"
   xmlns:cc="http://creativecommons.org/ns#"
   xmlns:rdf="http://www.w3.org/1999/02/22-rdf-syntax-ns#"
   xmlns:svg="http://www.w3.org/2000/svg"
   xmlns="http://www.w3.org/2000/svg"
   xmlns:sodipodi="http://sodipodi.sourceforge.net/DTD/sodipodi-0.dtd"
   xmlns:inkscape="http://www.inkscape.org/namespaces/inkscape"
   version="1.0"
   width="190mm"
   height="80mm"
   viewBox="0 0 538.58267 226.77164"
   preserveAspectRatio="xMidYMid meet"
   id="svg12"
   sodipodi:docname="totrace.svg"
   inkscape:version="0.92.3 (2405546, 2018-03-11)">
  <defs
     id="defs16" />
  <sodipodi:namedview
     pagecolor="#ffffff"
     bordercolor="#666666"
     borderopacity="1"
     objecttolerance="10"
     gridtolerance="10"
     guidetolerance="10"
     inkscape:pageopacity="0"
     inkscape:pageshadow="2"
     inkscape:window-width="1185"
     inkscape:window-height="720"
     id="namedview14"
     showgrid="false"
     units="mm"
     scale-x="0.75"
     inkscape:zoom="0.939"
     inkscape:cx="308.2915"
     inkscape:cy="124.51967"
     inkscape:window-x="2061"
     inkscape:window-y="79"
     inkscape:window-maximized="0"
     inkscape:current-layer="svg12" />
  <metadata
     id="metadata2">
Created by potrace 1.14, written by Peter Selinger 2001-2017
<rdf:RDF>
  <cc:Work
     rdf:about="">
    <dc:format>image/svg+xml</dc:format>
    <dc:type
       rdf:resource="http://purl.org/dc/dcmitype/StillImage" />
    <dc:title></dc:title>
  </cc:Work>
</rdf:RDF>
</metadata>
  <g
     transform="matrix(0.1,0,0,-0.1,6.3897761,214.69338)"
     id="g10"
     style="fill:#000000;stroke:none">
    <path
       d="m 3594,1978 c -3,-5 -18,-8 -35,-8 -16,0 -29,-4 -29,-10 0,-7 -197,-10 -570,-10 -373,0 -570,-3 -570,-10 0,-5 -11,-10 -25,-10 -14,0 -25,5 -25,10 0,6 -11,10 -24,10 -13,0 -26,5 -28,12 -6,17 -602,18 -619,1 -7,-7 -30,-13 -50,-13 -21,0 -41,-5 -44,-10 -3,-5 -35,-10 -70,-10 -35,0 -66,-4 -69,-8 -3,-5 -46,-12 -95,-15 -185,-13 -171,18 -171,-383 0,-379 1,-374 -61,-374 -6,0 -41,-14 -79,-30 -63,-28 -151,-41 -150,-22 1,4 7,18 15,32 8,14 14,37 15,52 0,15 5,30 10,33 12,8 13,95 1,95 -5,0 -11,18 -15,40 -3,22 -10,40 -15,40 -5,0 -11,9 -14,21 -3,11 -15,23 -26,26 -12,3 -21,9 -21,14 0,5 -18,12 -40,15 -22,4 -40,10 -40,15 0,5 -31,9 -70,9 -40,0 -70,-4 -70,-10 0,-5 -7,-10 -15,-10 -26,0 -98,-43 -103,-62 -2,-10 -7,-18 -11,-18 -16,0 -33,-120 -26,-182 17,-152 274,-263 365,-159 17,21 21,22 35,8 17,-18 22,-142 5,-152 -5,-3 -10,-15 -10,-25 0,-28 -77,-104 -129,-129 -44,-21 -131,-29 -131,-13 0,5 -11,14 -25,20 -28,13 -33,43 -10,62 8,7 15,19 15,26 0,8 9,19 20,26 65,41 -8,69 -189,72 -34,1 -46,-4 -55,-19 -6,-11 -20,-33 -31,-50 -11,-16 -33,-55 -48,-85 -16,-30 -32,-57 -35,-60 -4,-3 -14,-18 -22,-35 -7,-16 -25,-45 -38,-63 -58,-81 -61,-121 -11,-182 29,-35 37,-60 19,-60 -5,0 -10,-16 -10,-35 0,-19 -4,-35 -10,-35 -5,0 -10,-5 -10,-11 0,-6 -16,-30 -35,-53 -19,-24 -35,-48 -35,-55 0,-16 25,-14 41,5 11,14 13,14 21,0 12,-20 68,-22 68,-2 0,8 -4,18 -10,21 -5,3 -10,26 -10,50 0,24 5,47 10,50 6,3 10,16 10,28 0,18 3,17 16,-11 26,-51 64,-29 91,52 13,42 37,55 61,33 55,-50 212,107 212,213 0,16 7,20 34,20 19,0 37,4 40,9 3,4 24,11 46,14 24,3 49,14 59,26 10,12 23,21 28,21 13,0 83,73 83,87 0,6 5,13 11,15 6,2 14,28 16,58 2,30 6,61 9,68 4,13 134,-110 134,-127 0,-6 27,-37 60,-69 60,-60 60,-60 60,-346 0,-197 4,-293 12,-309 6,-12 14,-29 18,-37 6,-13 75,-16 501,-20 272,-3 488,-9 482,-13 -36,-23 -1,-27 205,-25 217,3 217,3 220,30 3,28 3,28 98,28 56,0 94,4 94,10 0,6 37,10 90,10 53,0 90,-4 90,-10 0,-6 58,-10 155,-10 85,0 155,4 155,9 0,16 192,21 224,5 34,-16 216,-20 216,-4 0,6 110,10 310,10 303,0 310,0 310,20 0,29 76,29 85,0 25,-78 462,-20 468,63 18,231 9,337 -31,337 -25,0 -25,0 -4,23 48,51 61,240 21,304 -12,19 -19,36 -17,39 8,7 38,-7 38,-17 0,-13 34,-11 48,3 18,18 17,889 0,920 -24,42 -63,68 -103,68 -14,0 -25,5 -25,10 0,6 -24,10 -54,10 -30,0 -58,-4 -61,-10 -3,-5 -28,-10 -56,-10 -27,0 -49,-4 -49,-10 0,-5 -22,-10 -50,-10 -27,0 -50,-4 -50,-10 0,-12 -266,-14 -272,-2 -6,13 -89,52 -113,52 -12,0 -28,7 -35,15 -9,11 -34,15 -101,15 -88,0 -88,0 -91,43 -3,39 -282,71 -304,35 z m 263,-24 c 21,-6 21,-8 18,-225 -2,-159 0,-219 8,-219 6,0 2,-10 -10,-22 -66,-66 -352,-15 -339,61 3,20 6,114 6,209 0,172 0,172 45,172 25,0 45,5 45,10 0,14 46,13 70,-2 16,-10 28,-9 62,4 48,18 63,20 95,12 z m -1807,-34 c 0,-5 -4,-10 -10,-10 -5,0 -10,-12 -10,-27 -1,-16 -7,-45 -14,-66 -20,-54 29,-52 56,2 9,19 30,40 46,47 16,6 33,17 36,23 9,14 116,15 116,1 0,-5 18,-10 40,-10 40,0 40,0 40,-89 0,-50 5,-93 10,-96 6,-4 10,-120 10,-315 0,-195 -4,-311 -10,-315 -5,-3 -10,-17 -10,-30 0,-13 5,-27 10,-30 16,-10 13,-468 -2,-463 -9,3 -15,37 -18,103 -7,141 -30,145 -30,6 0,-113 5,-106 -82,-115 -58,-6 -58,-6 -58,48 0,75 -8,79 -125,71 -52,-4 -95,-11 -95,-16 0,-5 -11,-9 -25,-9 -14,0 -25,-3 -25,-7 0,-12 -51,-33 -77,-33 -34,0 -43,34 -43,156 0,57 -4,104 -8,104 -5,0 -12,84 -15,187 -4,103 -11,191 -17,197 -16,16 -12,73 5,80 8,3 15,12 15,19 0,8 7,21 16,28 122,101 95,249 -46,249 -73,0 -120,4 -120,10 0,6 -22,10 -50,10 -46,0 -50,-2 -50,-24 0,-14 -4,-28 -10,-31 -5,-3 -10,-17 -10,-31 0,-27 -36,-74 -57,-74 -21,0 -15,-18 9,-31 43,-23 48,-35 48,-118 0,-44 5,-83 10,-86 27,-17 9,-261 -21,-285 -64,-52 -58,-560 6,-560 14,0 25,-4 25,-10 0,-6 55,-10 144,-10 81,0 146,-4 148,-9 2,-6 84,-11 185,-13 183,-3 183,-3 183,-100 0,-98 0,-98 -60,-98 -33,0 -60,-4 -60,-10 0,-6 -30,-10 -69,-10 -39,0 -73,5 -76,10 -4,6 -120,10 -316,10 -386,0 -337,-59 -345,419 -4,216 -11,394 -16,397 -38,24 -5,885 35,882 42,-3 42,-3 47,-182 7,-249 33,-235 38,21 3,163 3,163 43,163 21,0 39,4 39,9 0,5 52,12 115,16 63,4 117,11 120,15 3,4 54,11 115,15 61,4 113,11 116,16 7,13 154,11 154,-1 z m 1460,-160 c 0,-93 -4,-150 -10,-150 -5,0 -10,-18 -10,-40 0,-48 -4,-49 -40,-10 -18,19 -38,30 -57,30 -15,0 -36,7 -47,15 -10,8 -50,17 -87,21 -38,4 -72,11 -75,15 -12,20 -153,10 -164,-11 -10,-18 -21,-20 -125,-20 -70,0 -115,-4 -115,-10 0,-6 -38,-10 -95,-10 -95,0 -95,0 -95,-50 0,-27 5,-50 10,-50 6,0 10,-22 10,-50 0,-27 5,-50 10,-50 6,0 10,-31 10,-74 0,-41 5,-78 10,-81 6,-4 10,-63 10,-146 0,-86 -4,-139 -10,-139 -5,0 -10,-11 -10,-25 0,-14 -4,-25 -10,-25 -5,0 -10,-11 -10,-25 0,-14 -4,-25 -10,-25 -6,0 -10,-58 -10,-152 -1,-111 -4,-158 -14,-171 -15,-19 -41,-23 -51,-7 -3,6 -17,10 -31,10 -24,0 -24,0 -24,123 0,67 -3,208 -7,312 -6,178 -5,189 11,176 29,-24 39,-1 27,65 -6,32 -11,75 -11,96 0,21 -4,38 -10,38 -6,0 -10,97 -10,271 0,251 49,375 98,248 5,-13 116,-11 129,2 5,5 68,12 139,15 71,3 138,10 149,15 11,5 121,10 245,12 124,1 237,3 253,5 27,2 27,2 27,-148 z m 440,80 c 0,-6 32,-10 75,-10 43,0 75,-4 75,-10 0,-5 -22,-10 -49,-10 -75,0 -111,-10 -111,-30 0,-26 27,-30 213,-30 92,0 167,-3 167,-7 0,-11 50,-33 72,-33 10,0 18,5 18,10 0,6 18,10 40,10 22,0 40,4 40,9 0,13 163,33 290,35 115,1 115,1 118,-407 2,-430 -2,-478 -40,-417 -7,11 -19,20 -26,20 -7,0 -25,14 -39,30 -62,75 -54,23 23,-136 29,-62 54,-125 54,-141 0,-50 -28,-140 -60,-191 -39,-64 -38,-70 13,-74 42,-3 73,-166 37,-202 -5,-5 -10,-32 -10,-58 0,-26 -4,-48 -10,-48 -5,0 -10,-7 -10,-15 0,-19 -8,-19 -53,0 -26,11 -74,15 -168,15 -122,0 -131,1 -136,20 -6,21 -63,30 -63,10 0,-5 -20,-10 -44,-10 -27,0 -46,-5 -49,-13 -4,-10 -20,-13 -62,-9 -33,3 -73,-1 -96,-8 -31,-11 -44,-11 -62,-1 -17,9 -65,12 -160,9 -152,-3 -135,-13 -153,82 -4,19 -10,40 -15,45 -4,6 -11,30 -15,53 -4,23 -10,42 -15,42 -5,0 -9,27 -9,60 0,33 -4,60 -10,60 -15,0 -13,166 3,192 6,12 20,31 30,42 14,16 47,73 47,81 0,1 -16,7 -35,15 -35,14 -35,14 -35,101 0,48 -4,91 -10,94 -6,4 -10,67 -10,155 0,88 4,151 10,155 6,3 10,29 10,57 0,51 0,51 40,44 25,-4 40,-2 40,4 0,5 11,10 24,10 23,0 24,-3 19,-35 -3,-21 -2,-35 5,-35 14,0 26,-90 23,-187 -1,-66 2,-88 19,-115 11,-18 23,-39 26,-45 13,-28 88,-93 105,-93 11,0 19,-4 19,-9 0,-5 27,-12 60,-16 33,-4 60,-11 60,-15 0,-5 29,-12 65,-15 36,-4 68,-11 71,-16 3,-5 23,-9 45,-9 21,0 39,-4 39,-10 0,-5 15,-10 34,-10 42,0 46,-9 46,-116 0,-84 0,-84 -112,-84 -97,0 -117,-3 -138,-20 -42,-33 -50,-26 -50,40 0,33 -4,60 -10,60 -5,0 -10,20 -10,44 0,37 -4,45 -22,50 -36,9 -126,7 -133,-4 -3,-5 -12,-7 -20,-3 -43,16 -65,-5 -65,-62 0,-30 5,-55 10,-55 6,0 10,-11 10,-25 0,-14 5,-25 10,-25 6,0 10,-7 10,-16 0,-9 9,-25 21,-35 11,-9 20,-20 19,-24 -6,-29 123,-125 169,-125 11,0 23,-4 26,-10 3,-5 28,-10 56,-10 27,0 49,-4 49,-10 0,-6 35,-10 85,-10 50,0 85,4 85,10 0,6 16,10 35,10 19,0 35,5 35,10 0,6 5,10 11,10 23,0 95,40 117,64 23,28 35,287 13,300 -5,3 -12,31 -16,61 -3,30 -11,55 -16,55 -5,0 -9,14 -9,30 0,17 -4,30 -10,30 -5,0 -10,7 -10,15 0,8 -4,15 -10,15 -5,0 -10,8 -10,18 0,40 -24,72 -60,77 -19,4 -42,10 -51,15 -8,4 -50,11 -92,15 -42,4 -77,11 -77,16 0,5 -13,9 -30,9 -16,0 -30,5 -30,10 0,6 -13,10 -30,10 -16,0 -30,5 -30,10 0,6 -12,10 -28,10 -31,0 -72,25 -72,43 0,7 -9,19 -20,27 -24,17 -28,75 -6,83 8,3 20,18 28,34 14,30 178,51 178,23 0,-5 18,-10 40,-10 40,0 40,0 40,-46 0,-58 16,-74 74,-74 25,0 48,-4 51,-10 3,-5 31,-10 61,-10 30,0 54,5 54,10 0,6 7,10 16,10 8,0 22,6 30,14 16,16 19,86 4,86 -5,0 -10,8 -10,18 0,22 -22,72 -32,72 -5,0 -8,7 -8,15 0,8 -6,15 -13,15 -7,0 -19,9 -27,20 -8,11 -23,20 -32,20 -10,0 -51,16 -91,36 -69,34 -73,35 -99,20 -40,-24 -114,-19 -213,14 -116,39 -185,28 -185,-30 0,-5 -4,-10 -10,-10 -15,0 -13,257 3,275 14,17 27,19 27,5 z m -418,-382 c 3,-7 29,-15 59,-18 50,-5 99,-270 49,-270 -12,0 -14,-296 -2,-304 5,-3 12,-127 16,-277 5,-177 11,-278 19,-290 9,-14 9,-26 -1,-51 -7,-20 -8,-36 -3,-41 6,-6 5,-18 -1,-31 -6,-11 -14,-28 -18,-36 -8,-16 -67,-16 -84,1 -6,5 -25,9 -43,9 -18,0 -33,5 -33,10 0,6 -30,10 -70,10 -40,0 -70,4 -70,10 0,6 -13,10 -30,10 -20,0 -30,5 -30,15 0,8 -4,15 -8,15 -18,0 -32,-26 -32,-57 0,-57 -177,-51 -228,8 -20,23 -45,45 -57,50 -28,13 -59,32 -67,44 -15,21 -78,7 -107,-24 -16,-17 -33,-31 -38,-31 -5,0 -18,-8 -29,-17 -10,-10 -32,-24 -49,-32 -16,-7 -38,-17 -47,-22 -16,-8 -18,-4 -18,40 0,28 -4,53 -10,56 -52,32 -6,135 60,135 40,0 70,4 70,10 0,6 35,10 84,10 92,0 96,3 96,66 0,19 5,34 10,34 6,0 10,62 10,166 0,130 3,168 14,180 17,17 206,21 206,4 0,-5 11,-10 24,-10 48,0 66,-182 24,-249 -10,-17 -10,-25 0,-41 6,-11 12,-27 12,-36 0,-71 42,-114 111,-114 39,0 69,4 69,10 0,6 23,10 50,10 38,0 50,4 50,15 0,8 4,15 9,15 16,0 51,132 43,164 -3,11 -16,35 -29,52 -12,17 -23,37 -23,46 0,8 -11,42 -24,76 -13,34 -27,76 -31,94 -8,38 -41,78 -65,78 -9,0 -22,11 -30,24 -13,26 40,96 73,96 7,0 24,18 37,40 14,22 28,40 33,40 4,0 7,11 7,24 0,14 5,28 10,31 6,3 10,19 10,36 0,16 5,29 10,29 6,0 10,31 10,74 0,41 -4,78 -10,81 -13,8 -13,45 -1,45 5,0 11,-5 13,-12 z m -483,-17 c 59,-11 101,-45 101,-81 0,-11 5,-20 10,-20 6,0 10,-42 10,-105 0,-115 -23,-135 -153,-135 -44,0 -107,-23 -115,-42 -13,-29 -32,-3 -32,42 0,28 -4,50 -10,50 -6,0 -10,59 -10,156 0,169 6,174 199,135 z M 784,1417 c 158,-91 90,-347 -93,-347 -171,0 -246,205 -119,327 46,43 152,53 212,20 z m 386,-467 c 0,-82 -3,-150 -7,-150 -12,0 -133,124 -133,136 0,6 -18,28 -41,48 -42,39 -42,66 2,66 10,0 21,5 24,10 3,6 17,10 31,10 13,0 24,4 24,9 0,9 28,16 78,20 22,1 22,0 22,-149 z M 549,894 c 7,-6 -22,-68 -41,-90 -10,-11 -18,-26 -18,-32 0,-7 -4,-12 -10,-12 -5,0 -10,-6 -10,-13 0,-13 -38,-88 -49,-97 -3,-3 -13,-18 -21,-35 -8,-16 -29,-53 -46,-81 -17,-28 -34,-60 -38,-71 -4,-11 -15,-28 -26,-38 -11,-10 -20,-24 -20,-32 0,-22 -26,-15 -40,12 -15,27 5,89 42,131 31,35 79,137 69,147 -14,14 -25,3 -51,-47 -13,-25 -27,-46 -32,-46 -4,0 -8,-6 -8,-13 0,-24 -53,-95 -67,-90 -15,6 -18,73 -3,73 6,0 10,6 10,13 0,6 11,32 25,57 13,25 27,53 31,63 3,9 10,17 15,17 5,0 9,9 9,20 0,11 4,20 9,20 5,0 11,8 15,18 6,18 27,54 37,62 4,3 10,16 14,30 15,48 22,51 114,44 47,-4 88,-8 90,-10 z m 13,-178 c 8,-12 -2,-78 -13,-90 -5,-6 -9,-16 -9,-24 0,-32 -101,-143 -128,-140 -29,3 -53,34 -36,46 5,4 18,24 27,45 10,20 22,37 27,37 6,0 10,9 10,20 0,11 4,20 9,20 5,0 12,13 16,28 3,15 15,34 25,42 11,8 20,22 20,32 0,19 34,8 52,-16 z M 2370,500 c 0,-6 27,-10 60,-10 33,0 60,-4 60,-10 0,-5 16,-10 35,-10 34,0 35,-1 35,-40 0,-22 -5,-40 -11,-40 -6,0 -9,-15 -8,-34 2,-19 0,-38 -4,-42 -14,-15 -8,-141 8,-154 13,-10 15,-9 15,11 0,16 3,20 10,13 75,-75 -2,-149 -158,-152 -206,-4 -192,-17 -192,172 0,86 -4,147 -10,151 -11,7 -14,138 -3,148 11,11 163,8 163,-3 z"
       id="path4"
       inkscape:connector-curvature="0" />
    <path
       d="m 3630,1865 c 0,-8 -4,-15 -10,-15 -5,0 -10,-18 -10,-39 0,-22 5,-43 10,-46 16,-10 12,-46 -7,-64 -87,-80 -42,-166 87,-166 43,0 82,-3 86,-7 15,-16 44,-8 44,12 0,11 -3,20 -8,20 -4,0 -13,9 -20,21 -13,21 2,79 20,79 5,0 8,11 8,25 0,20 -5,25 -25,25 -16,0 -25,-6 -25,-15 0,-16 -9,-19 -34,-9 -24,9 -19,33 14,64 62,58 21,130 -75,130 -42,0 -55,-3 -55,-15 z m 89,-29 c 18,-21 10,-70 -12,-74 -10,-2 -19,4 -23,15 -3,10 -10,26 -15,35 -20,38 23,57 50,24 z m -15,-181 c 6,-11 19,-27 28,-36 10,-9 15,-19 11,-23 -10,-10 -63,-7 -63,4 0,6 -7,10 -15,10 -10,0 -15,10 -15,29 0,43 34,53 54,16 z"
       id="path6"
       inkscape:connector-curvature="0" />
    <path
       d="m 2318,395 c -41,-49 -23,-125 30,-125 20,0 62,-42 62,-62 0,-15 -8,-18 -46,-18 -49,0 -64,-47 -23,-73 16,-10 79,10 79,24 0,4 8,9 18,12 55,14 39,257 -17,257 -6,0 -11,5 -11,10 0,25 -66,8 -92,-25 z"
       id="path8"
       inkscape:connector-curvature="0" />
  </g>
  <rect
     style="fill:none;fill-opacity:1;stroke:#ff0000;stroke-width:0.02834646;stroke-miterlimit:4;stroke-dasharray:none;stroke-opacity:1"
     id="rect4528"
     width="507.47797"
     height="209.84019"
     x="7.0484042"
     y="9.8830442" />
</svg>
