<?xml version="1.0" standalone="no"?>
<!DOCTYPE svg PUBLIC "-//W3C//DTD SVG 20010904//EN"
 "http://www.w3.org/TR/2001/REC-SVG-20010904/DTD/svg10.dtd">
<svg version="1.0" xmlns="http://www.w3.org/2000/svg"
 width="354.000000pt" height="118.000000pt" viewBox="0 0 354.000000 118.000000"
 preserveAspectRatio="xMidYMid meet">
<metadata>
Created by potrace 1.14, written by Peter Selinger 2001-2017
</metadata>
<g transform="translate(0.000000,118.000000) scale(0.100000,-0.100000)"
fill="#000000" stroke="none">
<path d="M1973 936 c-49 -22 -75 -71 -70 -129 5 -53 26 -83 74 -103 32 -14 32
-14 18 -62 -8 -27 -28 -81 -45 -121 -25 -61 -27 -73 -14 -78 18 -7 16 -10 42
57 22 55 22 55 16 -35 -8 -120 -30 -207 -66 -256 -30 -42 -32 -74 -3 -63 29
11 69 96 90 189 7 30 7 30 32 -25 60 -132 78 -169 86 -169 23 -2 12 39 -42
154 -53 110 -61 135 -61 184 1 56 1 56 17 26 21 -41 43 -65 60 -65 17 0 17 24
-2 40 -19 16 -51 102 -59 163 -7 45 -6 47 21 58 40 15 71 46 83 85 9 27 8 41
-8 78 -32 72 -103 102 -169 72z m98 -36 c23 -13 49 -61 49 -90 0 -12 -13 -35
-29 -51 -75 -74 -194 9 -146 101 8 16 23 34 32 39 23 13 69 14 94 1z"/>
</g>
</svg>
