<?xml version="1.0" standalone="no"?>
<!DOCTYPE svg PUBLIC "-//W3C//DTD SVG 20010904//EN"
 "http://www.w3.org/TR/2001/REC-SVG-20010904/DTD/svg10.dtd">
<svg version="1.0" xmlns="http://www.w3.org/2000/svg"
 width="354.000000pt" height="118.000000pt" viewBox="0 0 354.000000 118.000000"
 preserveAspectRatio="xMidYMid meet">
<metadata>
Created by potrace 1.14, written by Peter Selinger 2001-2017
</metadata>
<g transform="translate(0.000000,118.000000) scale(0.100000,-0.100000)"
fill="#000000" stroke="none">
<path d="M2601 1111 c-135 -38 -135 -38 -147 -97 -7 -32 -14 -66 -16 -74 -2
-9 4 -14 15 -14 20 2 21 -3 2 -36 -20 -35 -19 -40 11 -40 23 0 25 3 20 26 -9
35 2 64 24 64 22 0 28 -17 29 -84 2 -63 25 -104 76 -131 47 -24 47 -19 -1
-167 -33 -100 -36 -128 -14 -128 4 0 17 26 28 58 20 57 20 57 15 -53 -2 -60
-9 -122 -15 -137 -11 -31 -62 -58 -107 -58 -35 0 -43 -25 -11 -35 36 -11 91 7
124 41 33 34 33 34 46 -51 11 -71 16 -85 32 -85 10 0 18 2 18 5 0 2 -11 69
-25 147 -14 78 -25 161 -25 184 0 42 0 42 32 13 21 -21 34 -27 41 -20 8 8 3
19 -15 38 -32 35 -48 89 -48 170 0 62 0 62 44 82 81 35 102 130 46 212 -16 24
-30 49 -30 56 0 6 18 14 40 18 22 4 42 11 45 15 5 8 -80 113 -94 117 -3 0 -66
-16 -140 -36z m168 -28 c21 -26 27 -39 19 -42 -7 -3 -80 -23 -163 -46 -126
-35 -151 -39 -154 -27 -5 23 21 38 89 52 33 7 63 17 66 21 8 13 -25 11 -80 -6
-62 -19 -65 -19 -59 4 3 14 31 26 116 49 62 17 117 31 124 31 6 1 25 -16 42
-36z m-43 -118 c-8 -23 -68 -45 -121 -45 -39 0 -46 3 -43 17 2 12 26 24 78 39
76 21 98 18 86 -11z m44 -96 c14 -73 -26 -119 -103 -119 -44 0 -74 23 -87 68
-17 64 -15 69 39 77 27 4 64 14 83 24 42 22 57 10 68 -50z"/>
</g>
</svg>
